<svg xmlns="http://www.w3.org/2000/svg" width="25.32" height="29.78"><defs><linearGradient id="a" x1=".57" x2=".21" y2="1" gradientUnits="objectBoundingBox"><stop offset="0" stop-color="#4b565e"/><stop offset=".11" stop-color="#4f5a62" stop-opacity=".94"/><stop offset=".37" stop-color="#5f6971" stop-opacity=".71"/><stop offset=".82" stop-color="#aab1b5" stop-opacity=".2"/><stop offset="1" stop-color="#fff" stop-opacity="0"/></linearGradient></defs><path fill="url(#a)" d="M972.1 282.85l-2.2-5.171a.548.548 0 00-1.01 0l-12.134 28.583a.622.622 0 00.572.865h4.174a1.025 1.025 0 00.943-.623l9.649-22.667a1.261 1.261 0 00.006-.987z" transform="translate(-956.715 -277.345)"/><path fill="#4b565e" d="M7.748 29.781h16.843a.729.729 0 00.671-1.013L16.853 8.917a.729.729 0 00-1.342 0L7.077 28.768a.729.729 0 00.671 1.013z"/></svg>